<svg width="32" height="32" viewBox="0 0 32 32" fill="none" xmlns="http://www.w3.org/2000/svg">
<rect width="32" height="32" fill="black"/>
<path fill-rule="evenodd" clip-rule="evenodd" d="M20.9333 6.41016V7.85607H22.3675V11.9844H19.4767V14.8599H22.3898V17.5585H20.9333V20.2572H19.6974V18.7973H18.2409V20.2572H16.7843V18.7973H15.3719V20.2572H13.9154V17.5585H11.0464V14.6727H9.58984V7.85607H11.0464V6.41016H20.9333ZM12.2613 11.9874H15.3527V14.8794H12.2613V11.9874ZM18.2385 16.12H16.7959V14.6741H18.2385V16.12Z" fill="white"/>
<path d="M19.6974 21.4869H20.9266V24.3788H19.4767V25.6102H15.3719V24.3788H13.9195V21.4869H15.3719V22.9558H16.7843V21.4869H18.2409V22.9558H19.6974V21.4869Z" fill="white"/>
</svg>
